<svg width="642" height="216" viewBox="0 0 642 216" fill="none" xmlns="http://www.w3.org/2000/svg">
<g opacity="0.8" filter="url(#filter0_f_827_10)">
<rect x="50" y="50" width="542" height="116" rx="9.94286" fill="url(#paint0_radial_827_10)"/>
</g>
<g filter="url(#filter1_bi_827_10)">
<path d="M58.4417 58.8613C59.8576 53.687 65.5763 50 72.186 50H569.814C576.424 50 582.142 53.687 583.558 58.8613L586.978 71.3571C593.674 95.8283 593.674 121.172 586.978 145.643L583.558 158.139C582.142 163.313 576.424 167 569.814 167H72.186C65.5763 167 59.8576 163.313 58.4417 158.139L55.0223 145.643C48.3259 121.172 48.3259 95.8283 55.0223 71.3572L58.4417 58.8613Z" fill="url(#paint1_linear_827_10)" fill-opacity="0.3"/>
</g>
<defs>
<filter id="filter0_f_827_10" x="0.285713" y="0.285713" width="641.429" height="215.429" filterUnits="userSpaceOnUse" color-interpolation-filters="sRGB">
<feFlood flood-opacity="0" result="BackgroundImageFix"/>
<feBlend mode="normal" in="SourceGraphic" in2="BackgroundImageFix" result="shape"/>
<feGaussianBlur stdDeviation="24.8571" result="effect1_foregroundBlur_827_10"/>
</filter>
<filter id="filter1_bi_827_10" x="43" y="43" width="556" height="131" filterUnits="userSpaceOnUse" color-interpolation-filters="sRGB">
<feFlood flood-opacity="0" result="BackgroundImageFix"/>
<feGaussianBlur in="BackgroundImage" stdDeviation="3.5"/>
<feComposite in2="SourceAlpha" operator="in" result="effect1_backgroundBlur_827_10"/>
<feBlend mode="normal" in="SourceGraphic" in2="effect1_backgroundBlur_827_10" result="shape"/>
<feColorMatrix in="SourceAlpha" type="matrix" values="0 0 0 0 0 0 0 0 0 0 0 0 0 0 0 0 0 0 127 0" result="hardAlpha"/>
<feOffset/>
<feGaussianBlur stdDeviation="4.5"/>
<feComposite in2="hardAlpha" operator="arithmetic" k2="-1" k3="1"/>
<feColorMatrix type="matrix" values="0 0 0 0 1 0 0 0 0 1 0 0 0 0 1 0 0 0 0.35 0"/>
<feBlend mode="normal" in2="shape" result="effect2_innerShadow_827_10"/>
</filter>
<radialGradient id="paint0_radial_827_10" cx="0" cy="0" r="1" gradientUnits="userSpaceOnUse" gradientTransform="translate(321 108) rotate(89.7453) scale(120.245 561.843)">
<stop stop-color="#93D0FC"/>
<stop offset="1" stop-color="#93D0FC" stop-opacity="0.63"/>
</radialGradient>
<linearGradient id="paint1_linear_827_10" x1="50" y1="120.628" x2="567.311" y2="114.427" gradientUnits="userSpaceOnUse">
<stop stop-color="#93D0FC"/>
<stop offset="1" stop-color="#D2A6FF"/>
</linearGradient>
</defs>
</svg>
