<svg width="156" height="41" viewBox="0 0 156 41" fill="none" xmlns="http://www.w3.org/2000/svg">
<g clip-path="url(#clip0_243_100)">
<path d="M29.9924 38.219C29.6367 38.219 29.3308 38.1372 29.0746 37.9736C28.8221 37.8099 28.63 37.5823 28.4984 37.2906C28.3668 36.9989 28.301 36.6681 28.301 36.2982C28.301 35.9283 28.3668 35.5975 28.4984 35.3058C28.6336 35.0106 28.8274 34.7812 29.08 34.6175C29.3361 34.4504 29.6402 34.3668 29.9924 34.3668C30.3409 34.3668 30.6415 34.4504 30.8941 34.6175C31.1466 34.7812 31.3387 35.0088 31.4703 35.3005C31.6019 35.5921 31.6677 35.9265 31.6677 36.3035C31.6677 36.677 31.6019 37.0078 31.4703 37.2959C31.3387 37.5841 31.1466 37.8099 30.8941 37.9736C30.6415 38.1372 30.3409 38.219 29.9924 38.219ZM29.987 37.7921C30.2325 37.7921 30.4459 37.7299 30.6273 37.6054C30.8087 37.4774 30.9474 37.2995 31.0434 37.0719C31.1395 36.8442 31.1875 36.5846 31.1875 36.2929C31.1875 36.0012 31.1395 35.7415 31.0434 35.5139C30.9474 35.2862 30.8087 35.1084 30.6273 34.9803C30.4459 34.8523 30.2325 34.7883 29.987 34.7883C29.7416 34.7883 29.5282 34.8541 29.3468 34.9857C29.1654 35.1137 29.0266 35.2916 28.9306 35.5192C28.8346 35.7469 28.7865 36.0048 28.7865 36.2929C28.7865 36.5846 28.8346 36.8442 28.9306 37.0719C29.0266 37.2959 29.1654 37.472 29.3468 37.6001C29.5282 37.7281 29.7416 37.7921 29.987 37.7921ZM33.9798 34.4468H34.4974L36.4982 37.4453H36.5195V34.4468H36.9731V38.1816H36.4502L34.4547 35.2258H34.4334V38.1816H33.9798V34.4468ZM41.6404 37.7655V38.1816H39.4368V34.4468H39.901L39.8957 37.7655H41.6404ZM43.9042 34.4468H44.3684V38.1816H43.9042V34.4468ZM46.8494 34.4468H47.367L49.3678 37.4453H49.3891V34.4468H49.8426V38.1816H49.3198L47.3243 35.2258H47.3029V38.1816H46.8494V34.4468ZM52.7706 34.863V36.0901H54.3873V36.4636H52.7706V37.7655H54.606V38.1816H52.3064V34.4468H54.606V34.863H52.7706ZM59.8284 34.4468H61.1943C61.5287 34.4468 61.8203 34.5233 62.0693 34.6762C62.3219 34.8256 62.5157 35.0408 62.6509 35.3218C62.7896 35.5993 62.859 35.9283 62.859 36.3089C62.859 36.6895 62.7896 37.0221 62.6509 37.3066C62.5157 37.5876 62.3219 37.8046 62.0693 37.9575C61.8168 38.1069 61.5233 38.1816 61.189 38.1816H59.8284V34.4468ZM61.1249 37.7548C61.502 37.7548 61.8043 37.6321 62.032 37.3867C62.2596 37.1377 62.3735 36.7784 62.3735 36.3089C62.3735 35.8394 62.2596 35.4819 62.032 35.2364C61.8079 34.9875 61.5055 34.863 61.1249 34.863H60.2766V37.7548H61.1249ZM66.2445 36.693H65.5775V38.1816H65.1187V34.4468H66.3885C66.6909 34.4468 66.9381 34.5019 67.1302 34.6122C67.3258 34.7225 67.4663 34.863 67.5517 35.0337C67.637 35.2044 67.6797 35.3841 67.6797 35.5726C67.6797 35.8322 67.6015 36.0652 67.445 36.2715C67.292 36.4778 67.0519 36.6094 66.7247 36.6664L67.7117 38.1816H67.2049L66.2445 36.693ZM65.5775 36.2982H66.3298C66.5824 36.2982 66.7958 36.2431 66.9701 36.1328C67.1444 36.0225 67.2315 35.8358 67.2315 35.5726C67.2315 35.3129 67.1444 35.1297 66.9701 35.023C66.7958 34.9163 66.5824 34.863 66.3298 34.863H65.5775V36.2982ZM70.0811 34.4468H70.5453V38.1816H70.0811V34.4468ZM72.6643 34.4468H73.1338L74.265 37.7175H74.297L75.4281 34.4468H75.8923L74.6011 38.1816H73.9608L72.6643 34.4468ZM78.0616 34.4468H78.5258V38.1816H78.0616V34.4468ZM81.0068 34.4468H81.5243L83.5251 37.4453H83.5465V34.4468H84V38.1816H83.4771L81.4816 35.2258H81.4603V38.1816H81.0068V34.4468ZM87.9319 38.219C87.5655 38.219 87.2614 38.1265 87.0195 37.9415C86.7777 37.753 86.598 37.5129 86.4807 37.2213C86.3668 36.9296 86.3099 36.6219 86.3099 36.2982C86.3099 35.971 86.3686 35.6615 86.486 35.3698C86.6034 35.0746 86.7866 34.8345 87.0356 34.6495C87.2845 34.461 87.5958 34.3668 87.9693 34.3668C88.3854 34.3668 88.7216 34.4806 88.9777 34.7082C89.2373 34.9323 89.417 35.2151 89.5166 35.5566H89.031C88.9599 35.3147 88.8354 35.1262 88.6575 34.991C88.4797 34.8559 88.2503 34.7883 87.9693 34.7883C87.5958 34.7883 87.3041 34.9234 87.0942 35.1938C86.8844 35.4641 86.7794 35.834 86.7794 36.3035C86.7794 36.7802 86.8862 37.1537 87.0996 37.424C87.3166 37.6943 87.6136 37.8295 87.9906 37.8295C88.2147 37.8295 88.4068 37.7833 88.5668 37.6908C88.7305 37.5947 88.855 37.4649 88.9403 37.3013C89.0292 37.1377 89.0755 36.9527 89.079 36.7464L89.0844 36.597H88.0386V36.2502H89.5166V38.1816H89.1484V37.5627H89.1057C89.0844 37.6161 89.0364 37.6926 88.9617 37.7921C88.887 37.8882 88.7625 37.9842 88.5882 38.0803C88.4174 38.1727 88.1987 38.219 87.9319 38.219ZM95.9634 38.2243C95.6753 38.2243 95.428 38.1656 95.2217 38.0483C95.019 37.9273 94.866 37.7726 94.7629 37.5841C94.6597 37.3955 94.6082 37.1981 94.6082 36.9918V36.9651H95.115V36.9918C95.115 37.1163 95.1435 37.2408 95.2004 37.3653C95.2609 37.4898 95.3551 37.5947 95.4832 37.6801C95.6112 37.7619 95.7749 37.8028 95.974 37.8028C96.2088 37.8028 96.4027 37.7424 96.5556 37.6214C96.7086 37.5005 96.785 37.3369 96.785 37.1305C96.785 36.9598 96.7281 36.8246 96.6143 36.7251C96.504 36.6219 96.3618 36.5525 96.1875 36.517L95.6432 36.4156C95.0172 36.2769 94.7042 35.9478 94.7042 35.4285C94.7042 35.2151 94.7558 35.0284 94.8589 34.8683C94.9621 34.7082 95.1044 34.5855 95.2858 34.5002C95.4707 34.4112 95.6841 34.3668 95.926 34.3668C96.1999 34.3668 96.4347 34.4219 96.6303 34.5322C96.8259 34.6424 96.9736 34.7865 97.0732 34.9643C97.1728 35.1386 97.2225 35.32 97.2225 35.5086V35.5299H96.7157V35.5139C96.7157 35.4072 96.689 35.2987 96.6356 35.1884C96.5858 35.0746 96.5005 34.9768 96.3795 34.895C96.2622 34.8132 96.1057 34.7723 95.91 34.7723C95.6859 34.7723 95.5063 34.8345 95.3711 34.959C95.2395 35.0835 95.1737 35.2382 95.1737 35.4232C95.1737 35.5797 95.2253 35.7078 95.3284 35.8073C95.4316 35.9069 95.5721 35.9745 95.75 36.0101L96.2408 36.1061C96.9273 36.2449 97.2706 36.581 97.2706 37.1145C97.2706 37.3315 97.2154 37.5236 97.1052 37.6908C96.9985 37.858 96.8455 37.9896 96.6463 38.0856C96.4471 38.1781 96.2195 38.2243 95.9634 38.2243ZM101.194 38.219C100.845 38.219 100.545 38.1372 100.292 37.9736C100.04 37.8064 99.8458 37.577 99.7106 37.2853C99.579 36.9936 99.5132 36.6628 99.5132 36.2929C99.5132 35.9229 99.579 35.5921 99.7106 35.3005C99.8458 35.0088 100.04 34.7812 100.292 34.6175C100.545 34.4504 100.845 34.3668 101.194 34.3668C101.614 34.3668 101.96 34.4859 102.234 34.7242C102.508 34.959 102.691 35.2774 102.784 35.6793H102.33C102.256 35.4054 102.119 35.1884 101.92 35.0284C101.72 34.8647 101.48 34.7829 101.199 34.7829C100.812 34.7829 100.515 34.9199 100.308 35.1938C100.102 35.4641 99.9988 35.8287 99.9988 36.2875C99.9988 36.75 100.102 37.1181 100.308 37.392C100.515 37.6623 100.812 37.7975 101.199 37.7975C101.466 37.7975 101.695 37.7263 101.888 37.5841C102.08 37.4382 102.217 37.2444 102.298 37.0025H102.752C102.652 37.3724 102.467 37.6677 102.197 37.8882C101.93 38.1087 101.596 38.219 101.194 38.219ZM107.868 34.4468V38.1816H107.404V36.4903H105.505V38.1816H105.046V34.4468H105.505V36.1168H107.404V34.4468H107.868ZM111.858 38.219C111.502 38.219 111.196 38.1372 110.94 37.9736C110.687 37.8099 110.495 37.5823 110.364 37.2906C110.232 36.9989 110.166 36.6681 110.166 36.2982C110.166 35.9283 110.232 35.5975 110.364 35.3058C110.499 35.0106 110.693 34.7812 110.945 34.6175C111.201 34.4504 111.505 34.3668 111.858 34.3668C112.206 34.3668 112.507 34.4504 112.759 34.6175C113.012 34.7812 113.204 35.0088 113.335 35.3005C113.467 35.5921 113.533 35.9265 113.533 36.3035C113.533 36.677 113.467 37.0078 113.335 37.2959C113.204 37.5841 113.012 37.8099 112.759 37.9736C112.507 38.1372 112.206 38.219 111.858 38.219ZM111.852 37.7921C112.098 37.7921 112.311 37.7299 112.492 37.6054C112.674 37.4774 112.813 37.2995 112.909 37.0719C113.005 36.8442 113.053 36.5846 113.053 36.2929C113.053 36.0012 113.005 35.7415 112.909 35.5139C112.813 35.2862 112.674 35.1084 112.492 34.9803C112.311 34.8523 112.098 34.7883 111.852 34.7883C111.607 34.7883 111.393 34.8541 111.212 34.9857C111.031 35.1137 110.892 35.2916 110.796 35.5192C110.7 35.7469 110.652 36.0048 110.652 36.2929C110.652 36.5846 110.7 36.8442 110.796 37.0719C110.892 37.2959 111.031 37.472 111.212 37.6001C111.393 37.7281 111.607 37.7921 111.852 37.7921ZM117.424 38.219C117.068 38.219 116.762 38.1372 116.506 37.9736C116.254 37.8099 116.062 37.5823 115.93 37.2906C115.798 36.9989 115.733 36.6681 115.733 36.2982C115.733 35.9283 115.798 35.5975 115.93 35.3058C116.065 35.0106 116.259 34.7812 116.512 34.6175C116.768 34.4504 117.072 34.3668 117.424 34.3668C117.773 34.3668 118.073 34.4504 118.326 34.6175C118.578 34.7812 118.77 35.0088 118.902 35.3005C119.034 35.5921 119.099 35.9265 119.099 36.3035C119.099 36.677 119.034 37.0078 118.902 37.2959C118.77 37.5841 118.578 37.8099 118.326 37.9736C118.073 38.1372 117.773 38.219 117.424 38.219ZM117.419 37.7921C117.664 37.7921 117.877 37.7299 118.059 37.6054C118.24 37.4774 118.379 37.2995 118.475 37.0719C118.571 36.8442 118.619 36.5846 118.619 36.2929C118.619 36.0012 118.571 35.7415 118.475 35.5139C118.379 35.2862 118.24 35.1084 118.059 34.9803C117.877 34.8523 117.664 34.7883 117.419 34.7883C117.173 34.7883 116.96 34.8541 116.778 34.9857C116.597 35.1137 116.458 35.2916 116.362 35.5192C116.266 35.7469 116.218 36.0048 116.218 36.2929C116.218 36.5846 116.266 36.8442 116.362 37.0719C116.458 37.2959 116.597 37.472 116.778 37.6001C116.96 37.7281 117.173 37.7921 117.419 37.7921ZM123.615 37.7655V38.1816H121.411V34.4468H121.876L121.87 37.7655H123.615Z" fill="white"/>
<path fill-rule="evenodd" clip-rule="evenodd" d="M62.8377 10.8271C64.6216 11.7387 64.6138 11.7043 63.5169 13.8255C62.5592 15.6782 62.2984 15.7536 60.7897 14.6123C59.2905 13.4782 57.5566 13.5958 55.8382 14.948C53.773 16.5721 53.773 19.9012 55.8382 21.5253C58.8793 23.9178 60.6982 22.9429 64.1866 17.052C65.9177 14.1285 67.6039 12.0411 68.9694 11.1322C74.5214 7.43798 82.1224 11.5123 82.1168 18.18C82.1129 23.0628 78.5657 26.5534 73.6042 26.5573C71.0524 26.5595 67.6927 25.2201 67.6927 24.2008C67.6927 23.8351 68.9112 21.6407 69.7501 20.4966C69.8456 20.3662 70.2334 20.6752 70.6113 21.1829C71.8425 22.8347 74.5247 22.9501 76.2952 21.4276C78.4281 19.5927 78.4536 16.9028 76.3546 15.0972C73.2602 12.435 71.1739 13.5486 67.5401 19.8024C64.5245 24.992 62.2079 26.7531 58.4688 26.6966C53.7447 26.625 49.9373 22.9246 49.9373 18.4042C49.9373 11.5972 56.6399 7.65992 62.8377 10.8271Z" fill="white"/>
<path d="M27.2743 27.2824C24.955 27.2824 23.3559 26.5988 22.477 25.2317C21.6225 23.8645 21.1953 21.9602 21.1953 19.5189V10.1073H25.1503V18.5301C25.1503 19.9217 25.2235 21.0081 25.37 21.7893C25.5409 22.5462 25.8583 23.1077 26.3222 23.4739C26.8104 23.8401 27.5306 24.0232 28.4828 24.0232C29.1664 24.0232 29.8255 23.8279 30.4603 23.4373C31.0951 23.0466 31.6077 22.5217 31.9984 21.8626C32.4134 21.179 32.6209 20.4344 32.6209 19.6287V10.1073H36.5393V26.9162H33.3167L32.8773 24.4626C32.2669 25.4148 31.4979 26.1228 30.5702 26.5866C29.6669 27.0505 28.5682 27.2824 27.2743 27.2824Z" fill="white"/>
<path d="M41.2511 13.33H38.8401V10.1073H41.2511V3.25929L45.2427 3.25928V10.1073L48.2726 10.1073V13.33L45.2427 13.33V26.9162H41.2511V13.33Z" fill="white"/>
<path d="M83.7814 10.1073H87.6632L87.6998 13.1834C88.1636 12.158 88.8961 11.3158 89.897 10.6566C90.898 9.99743 92.0698 9.66785 93.4126 9.66785C95.146 9.66785 96.4765 10.0341 97.4043 10.7665C98.332 11.4745 98.9545 12.4754 99.2719 13.7694C99.5893 15.0633 99.748 16.7478 99.748 18.823V26.9162H95.7929V18.9329C95.7929 16.8089 95.5854 15.283 95.1704 14.3553C94.7554 13.4032 93.9009 12.9271 92.6069 12.9271C91.8745 12.9271 91.1299 13.159 90.3731 13.6229C89.6163 14.0623 88.9815 14.7093 88.4688 15.5638C87.9805 16.4183 87.7364 17.4192 87.7364 18.5667V26.9162H83.7814V10.1073Z" fill="white"/>
<path d="M103.161 0H107.079V26.9162H103.161V0Z" fill="white"/>
<path d="M110.909 10.1073H115.01V26.9162H110.909V10.1073ZM112.923 6.95792C112.166 6.95792 111.532 6.70158 111.019 6.18889C110.506 5.6762 110.25 5.04144 110.25 4.28461C110.25 3.60103 110.506 3.0151 111.019 2.52682C111.532 2.03855 112.166 1.79441 112.923 1.79441C113.656 1.79441 114.278 2.03855 114.791 2.52682C115.303 3.0151 115.56 3.60103 115.56 4.28461C115.56 5.04144 115.303 5.6762 114.791 6.18889C114.302 6.70158 113.68 6.95792 112.923 6.95792Z" fill="white"/>
<path d="M118.472 10.1073H122.354L122.391 13.1834C122.855 12.158 123.587 11.3158 124.588 10.6566C125.589 9.99743 126.761 9.66785 128.104 9.66785C129.837 9.66785 131.167 10.0341 132.095 10.7665C133.023 11.4745 133.645 12.4754 133.963 13.7694C134.28 15.0633 134.439 16.7478 134.439 18.823V26.9162H130.484V18.9329C130.484 16.8089 130.276 15.283 129.861 14.3553C129.446 13.4032 128.592 12.9271 127.298 12.9271C126.565 12.9271 125.821 13.159 125.064 13.6229C124.307 14.0623 123.672 14.7093 123.16 15.5638C122.671 16.4183 122.427 17.4192 122.427 18.5667V26.9162H118.472V10.1073Z" fill="white"/>
<path d="M14.3753 10.1076V11.943C16.1107 13.5165 17.2006 15.7891 17.2006 18.3161C17.2006 20.8254 16.126 23.0836 14.4119 24.6558V26.9164H18.1472V10.1076H14.3753Z" fill="white"/>
<path fill-rule="evenodd" clip-rule="evenodd" d="M14.4119 24.6558C16.126 23.0836 17.2006 20.8254 17.2006 18.3161C17.2006 15.7891 16.1107 13.5165 14.3753 11.943C14.2759 11.8529 14.1744 11.7651 14.0709 11.6797C12.5842 10.4528 10.6783 9.71582 8.6003 9.71582C3.85048 9.71582 -7.62939e-06 13.5663 -7.62939e-06 18.3161C-7.62939e-06 23.0659 3.85048 26.9164 8.6003 26.9164C10.8409 26.9164 12.8813 26.0596 14.4119 24.6558ZM8.6003 23.0324C11.205 23.0324 13.3166 20.9209 13.3166 18.3161C13.3166 15.7114 11.205 13.5998 8.6003 13.5998C5.99556 13.5998 3.884 15.7114 3.884 18.3161C3.884 20.9209 5.99556 23.0324 8.6003 23.0324Z" fill="white"/>
<path d="M146.205 27.471C141.149 27.471 137.05 23.3721 137.05 18.3158C137.05 13.2596 141.149 9.16064 146.205 9.16064C151.261 9.16064 155.36 13.2596 155.36 18.3158C155.36 18.9822 155.289 19.6319 155.154 20.2578H151.107C151.345 19.6568 151.476 19.0016 151.476 18.3158C151.476 17.8357 151.412 17.3706 151.292 16.9287C150.683 14.6905 148.636 13.0447 146.205 13.0447C143.774 13.0447 141.727 14.6905 141.118 16.9287C140.998 17.3706 140.934 17.8357 140.934 18.3158C140.934 19.0016 141.065 19.6568 141.303 20.2578C142.076 22.2079 143.98 23.587 146.205 23.587C147.721 23.587 149.088 22.947 150.049 21.9224H154.622C153.222 25.1854 149.981 27.471 146.205 27.471Z" fill="white"/>
<path d="M151.107 20.2578C151.345 19.6568 151.476 19.0016 151.476 18.3158C151.476 17.8357 151.412 17.3706 151.292 16.9287H141.118C140.998 17.3706 140.934 17.8357 140.934 18.3158C140.934 19.0016 141.065 19.6568 141.303 20.2578H151.107Z" fill="white"/>
</g>
<defs>
<clipPath id="clip0_243_100">
<rect width="155.36" height="40.19" fill="white"/>
</clipPath>
</defs>
</svg>
