
<svg width="123" height="45" viewBox="0 0 123 45" fill="none" xmlns="http://www.w3.org/2000/svg">
<path d="M0 -15.755C0 -18.6517 2.34828 -21 5.24503 -21H117.139C120.036 -21 122.384 -18.6517 122.384 -15.755V39.755C122.384 42.6517 120.036 45 117.139 45H90.095C85.4261 45 80.7873 44.2519 76.355 42.7842L72.184 41.403C65.0466 39.0396 57.3375 39.0396 50.2001 41.403L46.0291 42.7842C41.5968 44.2519 36.958 45 32.2891 45H5.24503C2.34828 45 0 42.6517 0 39.755V-15.755Z" fill="#303030" fill-opacity="0.5"/>
<g clip-path="url(#clip0_85_122)">
<path d="M34.0698 29.2873C33.8679 29.2873 33.6942 29.2409 33.5489 29.148C33.4055 29.0551 33.2965 28.9259 33.2218 28.7604C33.1471 28.5948 33.1098 28.4071 33.1098 28.1971C33.1098 27.9871 33.1471 27.7994 33.2218 27.6338C33.2985 27.4662 33.4086 27.336 33.5519 27.2432C33.6973 27.1483 33.8699 27.1008 34.0698 27.1008C34.2676 27.1008 34.4382 27.1483 34.5816 27.2432C34.7249 27.336 34.8339 27.4652 34.9086 27.6308C34.9833 27.7963 35.0207 27.9861 35.0207 28.2001C35.0207 28.4121 34.9833 28.5999 34.9086 28.7634C34.8339 28.9269 34.7249 29.0551 34.5816 29.148C34.4382 29.2409 34.2676 29.2873 34.0698 29.2873ZM34.0667 29.045C34.206 29.045 34.3272 29.0097 34.4301 28.939C34.5331 28.8664 34.6118 28.7654 34.6664 28.6362C34.7209 28.507 34.7481 28.3596 34.7481 28.1941C34.7481 28.0285 34.7209 27.8811 34.6664 27.7519C34.6118 27.6227 34.5331 27.5218 34.4301 27.4491C34.3272 27.3764 34.206 27.3401 34.0667 27.3401C33.9274 27.3401 33.8063 27.3774 33.7033 27.4521C33.6004 27.5248 33.5216 27.6257 33.4671 27.755C33.4126 27.8842 33.3854 28.0305 33.3854 28.1941C33.3854 28.3596 33.4126 28.507 33.4671 28.6362C33.5216 28.7634 33.6004 28.8633 33.7033 28.936C33.8063 29.0087 33.9274 29.045 34.0667 29.045ZM36.333 27.1462H36.6268L37.7624 28.8482H37.7745V27.1462H38.032V29.2661H37.7352L36.6026 27.5884H36.5904V29.2661H36.333V27.1462ZM40.6811 29.0299V29.2661H39.4304V27.1462H39.6939L39.6908 29.0299H40.6811ZM41.966 27.1462H42.2295V29.2661H41.966V27.1462ZM43.6377 27.1462H43.9315L45.0671 28.8482H45.0792V27.1462H45.3366V29.2661H45.0398L43.9072 27.5884H43.8951V29.2661H43.6377V27.1462ZM46.9985 27.3825V28.079H47.9161V28.291H46.9985V29.0299H48.0403V29.2661H46.7351V27.1462H48.0403V27.3825H46.9985ZM51.0045 27.1462H51.7797C51.9695 27.1462 52.1351 27.1897 52.2764 27.2765C52.4197 27.3613 52.5298 27.4834 52.6065 27.6429C52.6852 27.8004 52.7246 27.9871 52.7246 28.2032C52.7246 28.4192 52.6852 28.6079 52.6065 28.7695C52.5298 28.929 52.4197 29.0521 52.2764 29.1389C52.1331 29.2237 51.9665 29.2661 51.7767 29.2661H51.0045V27.1462ZM51.7404 29.0238C51.9544 29.0238 52.126 28.9542 52.2552 28.8149C52.3844 28.6736 52.449 28.4696 52.449 28.2032C52.449 27.9367 52.3844 27.7338 52.2552 27.5944C52.128 27.4531 51.9564 27.3825 51.7404 27.3825H51.2589V29.0238H51.7404ZM54.6462 28.4212H54.2676V29.2661H54.0072V27.1462H54.7279C54.8996 27.1462 55.0399 27.1775 55.1489 27.2401C55.2599 27.3027 55.3397 27.3825 55.3881 27.4794C55.4366 27.5763 55.4608 27.6782 55.4608 27.7852C55.4608 27.9326 55.4164 28.0649 55.3276 28.182C55.2408 28.299 55.1045 28.3737 54.9187 28.4061L55.479 29.2661H55.1913L54.6462 28.4212ZM54.2676 28.1971H54.6946C54.838 28.1971 54.9591 28.1658 55.058 28.1032C55.157 28.0406 55.2064 27.9346 55.2064 27.7852C55.2064 27.6379 55.157 27.5339 55.058 27.4733C54.9591 27.4127 54.838 27.3825 54.6946 27.3825H54.2676V28.1971ZM56.8238 27.1462H57.0873V29.2661H56.8238V27.1462ZM58.29 27.1462H58.5565L59.1985 29.0026H59.2167L59.8587 27.1462H60.1222L59.3893 29.2661H59.0259L58.29 27.1462ZM61.3535 27.1462H61.6169V29.2661H61.3535V27.1462ZM63.0251 27.1462H63.3189L64.4545 28.8482H64.4667V27.1462H64.7241V29.2661H64.4273L63.2947 27.5884H63.2826V29.2661H63.0251V27.1462ZM66.9558 29.2873C66.7478 29.2873 66.5752 29.2348 66.4379 29.1298C66.3007 29.0228 66.1987 28.8866 66.1321 28.721C66.0675 28.5555 66.0352 28.3808 66.0352 28.1971C66.0352 28.0114 66.0685 27.8357 66.1351 27.6702C66.2017 27.5026 66.3057 27.3663 66.447 27.2613C66.5884 27.1543 66.765 27.1008 66.977 27.1008C67.2132 27.1008 67.404 27.1654 67.5494 27.2946C67.6967 27.4218 67.7987 27.5823 67.8552 27.7761H67.5796C67.5393 27.6389 67.4686 27.5319 67.3677 27.4551C67.2667 27.3784 67.1365 27.3401 66.977 27.3401C66.765 27.3401 66.5995 27.4168 66.4803 27.5702C66.3612 27.7237 66.3017 27.9336 66.3017 28.2001C66.3017 28.4707 66.3622 28.6826 66.4834 28.8361C66.6065 28.9895 66.7751 29.0662 66.9891 29.0662C67.1163 29.0662 67.2253 29.04 67.3162 28.9875C67.409 28.933 67.4797 28.8593 67.5282 28.7664C67.5786 28.6736 67.6049 28.5686 67.6069 28.4515L67.6099 28.3667H67.0164V28.1698H67.8552V29.2661H67.6463V28.9148H67.622C67.6099 28.9451 67.5827 28.9885 67.5403 29.045C67.4979 29.0996 67.4272 29.1541 67.3283 29.2086C67.2314 29.2611 67.1072 29.2873 66.9558 29.2873ZM71.5144 29.2903C71.3509 29.2903 71.2105 29.257 71.0934 29.1904C70.9784 29.1218 70.8916 29.0339 70.833 28.9269C70.7745 28.8199 70.7452 28.7079 70.7452 28.5908V28.5756H71.0329V28.5908C71.0329 28.6614 71.049 28.7321 71.0813 28.8028C71.1157 28.8734 71.1692 28.933 71.2418 28.9814C71.3145 29.0279 71.4074 29.0511 71.5204 29.0511C71.6537 29.0511 71.7637 29.0168 71.8505 28.9481C71.9374 28.8795 71.9808 28.7866 71.9808 28.6695C71.9808 28.5726 71.9485 28.4959 71.8839 28.4394C71.8213 28.3808 71.7405 28.3414 71.6416 28.3213L71.3327 28.2637C70.9774 28.185 70.7997 27.9982 70.7997 27.7035C70.7997 27.5823 70.829 27.4763 70.8875 27.3855C70.9461 27.2946 71.0268 27.225 71.1298 27.1765C71.2348 27.1261 71.3559 27.1008 71.4932 27.1008C71.6486 27.1008 71.7819 27.1321 71.8929 27.1947C72.004 27.2573 72.0878 27.3391 72.1443 27.44C72.2008 27.5389 72.2291 27.6419 72.2291 27.7489V27.761H71.9414V27.7519C71.9414 27.6914 71.9262 27.6298 71.896 27.5672C71.8677 27.5026 71.8192 27.4471 71.7506 27.4006C71.684 27.3542 71.5951 27.331 71.4841 27.331C71.3569 27.331 71.255 27.3663 71.1782 27.437C71.1035 27.5076 71.0662 27.5955 71.0662 27.7004C71.0662 27.7893 71.0955 27.862 71.154 27.9185C71.2126 27.975 71.2923 28.0134 71.3933 28.0336L71.6719 28.0881C72.0615 28.1668 72.2563 28.3576 72.2563 28.6604C72.2563 28.7836 72.225 28.8926 72.1625 28.9875C72.1019 29.0824 72.0151 29.1571 71.902 29.2116C71.789 29.2641 71.6598 29.2903 71.5144 29.2903ZM74.4832 29.2873C74.2853 29.2873 74.1147 29.2409 73.9714 29.148C73.8281 29.0531 73.718 28.9229 73.6413 28.7573C73.5666 28.5918 73.5293 28.404 73.5293 28.1941C73.5293 27.9841 73.5666 27.7963 73.6413 27.6308C73.718 27.4652 73.8281 27.336 73.9714 27.2432C74.1147 27.1483 74.2853 27.1008 74.4832 27.1008C74.7214 27.1008 74.9183 27.1685 75.0737 27.3037C75.2292 27.437 75.3332 27.6177 75.3857 27.8458H75.1282C75.0858 27.6903 75.0081 27.5672 74.8951 27.4763C74.782 27.3835 74.6457 27.337 74.4862 27.337C74.2662 27.337 74.0976 27.4148 73.9805 27.5702C73.8634 27.7237 73.8048 27.9306 73.8048 28.191C73.8048 28.4535 73.8634 28.6625 73.9805 28.8179C74.0976 28.9714 74.2662 29.0481 74.4862 29.0481C74.6376 29.0481 74.7679 29.0077 74.8769 28.9269C74.9859 28.8442 75.0636 28.7341 75.1101 28.5968H75.3675C75.311 28.8068 75.206 28.9744 75.0525 29.0996C74.9011 29.2247 74.7113 29.2873 74.4832 29.2873ZM78.2714 27.1462V29.2661H78.008V28.3061H76.9299V29.2661H76.6694V27.1462H76.9299V28.0941H78.008V27.1462H78.2714ZM80.5358 29.2873C80.3339 29.2873 80.1603 29.2409 80.0149 29.148C79.8716 29.0551 79.7626 28.9259 79.6879 28.7604C79.6131 28.5948 79.5758 28.4071 79.5758 28.1971C79.5758 27.9871 79.6131 27.7994 79.6879 27.6338C79.7646 27.4662 79.8746 27.336 80.0179 27.2432C80.1633 27.1483 80.3359 27.1008 80.5358 27.1008C80.7337 27.1008 80.9043 27.1483 81.0476 27.2432C81.1909 27.336 81.3 27.4652 81.3747 27.6308C81.4494 27.7963 81.4867 27.9861 81.4867 28.2001C81.4867 28.4121 81.4494 28.5999 81.3747 28.7634C81.3 28.9269 81.1909 29.0551 81.0476 29.148C80.9043 29.2409 80.7337 29.2873 80.5358 29.2873ZM80.5328 29.045C80.6721 29.045 80.7932 29.0097 80.8962 28.939C80.9991 28.8664 81.0779 28.7654 81.1324 28.6362C81.1869 28.507 81.2142 28.3596 81.2142 28.1941C81.2142 28.0285 81.1869 27.8811 81.1324 27.7519C81.0779 27.6227 80.9991 27.5218 80.8962 27.4491C80.7932 27.3764 80.6721 27.3401 80.5328 27.3401C80.3935 27.3401 80.2723 27.3774 80.1694 27.4521C80.0664 27.5248 79.9877 27.6257 79.9331 27.755C79.8786 27.8842 79.8514 28.0305 79.8514 28.1941C79.8514 28.3596 79.8786 28.507 79.9331 28.6362C79.9877 28.7634 80.0664 28.8633 80.1694 28.936C80.2723 29.0087 80.3935 29.045 80.5328 29.045ZM83.6953 29.2873C83.4934 29.2873 83.3197 29.2409 83.1744 29.148C83.031 29.0551 82.922 28.9259 82.8473 28.7604C82.7726 28.5948 82.7353 28.4071 82.7353 28.1971C82.7353 27.9871 82.7726 27.7994 82.8473 27.6338C82.924 27.4662 83.0341 27.336 83.1774 27.2432C83.3228 27.1483 83.4954 27.1008 83.6953 27.1008C83.8931 27.1008 84.0637 27.1483 84.207 27.2432C84.3504 27.336 84.4594 27.4652 84.5341 27.6308C84.6088 27.7963 84.6462 27.9861 84.6462 28.2001C84.6462 28.4121 84.6088 28.5999 84.5341 28.7634C84.4594 28.9269 84.3504 29.0551 84.207 29.148C84.0637 29.2409 83.8931 29.2873 83.6953 29.2873ZM83.6922 29.045C83.8315 29.045 83.9527 29.0097 84.0556 28.939C84.1586 28.8664 84.2373 28.7654 84.2918 28.6362C84.3464 28.507 84.3736 28.3596 84.3736 28.1941C84.3736 28.0285 84.3464 27.8811 84.2918 27.7519C84.2373 27.6227 84.1586 27.5218 84.0556 27.4491C83.9527 27.3764 83.8315 27.3401 83.6922 27.3401C83.5529 27.3401 83.4318 27.3774 83.3288 27.4521C83.2259 27.5248 83.1471 27.6257 83.0926 27.755C83.0381 27.8842 83.0108 28.0305 83.0108 28.1941C83.0108 28.3596 83.0381 28.507 83.0926 28.6362C83.1471 28.7634 83.2259 28.8633 83.3288 28.936C83.4318 29.0087 83.5529 29.045 83.6922 29.045ZM87.2092 29.0299V29.2661H85.9585V27.1462H86.222L86.219 29.0299H87.2092Z" fill="white"/>
<path fill-rule="evenodd" clip-rule="evenodd" d="M52.7127 14.1452C53.7252 14.6627 53.7208 14.6431 53.0982 15.8471C52.5546 16.8987 52.4066 16.9415 51.5503 16.2937C50.6993 15.65 49.7152 15.7167 48.7398 16.4842C47.5676 17.406 47.5676 19.2956 48.7398 20.2174C50.466 21.5754 51.4983 21.0221 53.4783 17.6785C54.4609 16.0191 55.418 14.8343 56.193 14.3184C59.3442 12.2216 63.6585 14.5342 63.6554 18.3187C63.6532 21.0901 61.6398 23.0714 58.8237 23.0736C57.3753 23.0748 55.4684 22.3146 55.4684 21.7361C55.4684 21.5285 56.16 20.283 56.6361 19.6336C56.6903 19.5596 56.9104 19.735 57.1249 20.0231C57.8237 20.9607 59.3461 21.0262 60.3511 20.162C61.5617 19.1205 61.5762 17.5937 60.3848 16.5689C58.6284 15.0579 57.4443 15.69 55.3818 19.2396C53.6701 22.1851 52.3552 23.1847 50.2329 23.1526C47.5516 23.112 45.3905 21.0117 45.3905 18.4459C45.3905 14.5823 49.1949 12.3476 52.7127 14.1452Z" fill="white"/>
<path d="M32.5271 23.4853C31.2106 23.4853 30.303 23.0973 29.8042 22.3213C29.3192 21.5453 29.0767 20.4644 29.0767 19.0787V13.7368H31.3215V18.5175C31.3215 19.3074 31.3631 19.924 31.4462 20.3674C31.5432 20.797 31.7234 21.1157 31.9866 21.3236C32.2638 21.5314 32.6726 21.6354 33.213 21.6354C33.601 21.6354 33.9751 21.5245 34.3354 21.3028C34.6957 21.0811 34.9867 20.7832 35.2084 20.409C35.444 20.021 35.5618 19.5984 35.5618 19.1411V13.7368H37.7858V23.2774H35.9567L35.7073 21.8848C35.3608 22.4252 34.9243 22.8271 34.3978 23.0904C33.8851 23.3536 33.2615 23.4853 32.5271 23.4853Z" fill="white"/>
<path d="M40.4602 15.566H39.0917V13.7368H40.4602V9.84993L42.7258 9.84993V13.7368L44.4456 13.7368V15.566L42.7258 15.566V23.2774H40.4602V15.566Z" fill="white"/>
<path d="M64.6001 13.7368H66.8034L66.8242 15.4828C67.0874 14.9008 67.5032 14.4227 68.0713 14.0486C68.6394 13.6745 69.3046 13.4874 70.0667 13.4874C71.0506 13.4874 71.8058 13.6952 72.3323 14.111C72.8589 14.5128 73.2123 15.081 73.3924 15.8154C73.5725 16.5498 73.6626 17.5059 73.6626 18.6838V23.2774H71.4178V18.7461C71.4178 17.5406 71.3 16.6745 71.0644 16.1479C70.8288 15.6075 70.3438 15.3373 69.6094 15.3373C69.1937 15.3373 68.7711 15.469 68.3415 15.7322C67.9119 15.9817 67.5517 16.3489 67.2607 16.8339C66.9835 17.3189 66.8449 17.887 66.8449 18.5383V23.2774H64.6001V13.7368Z" fill="white"/>
<path d="M75.5997 8H77.8238V23.2774H75.5997V8Z" fill="white"/>
<path d="M79.9975 13.7368H82.3255V23.2774H79.9975V13.7368ZM81.1407 11.9493C80.7111 11.9493 80.3509 11.8038 80.0599 11.5128C79.7689 11.2218 79.6234 10.8615 79.6234 10.4319C79.6234 10.0439 79.7689 9.71135 80.0599 9.4342C80.3509 9.15706 80.7111 9.01849 81.1407 9.01849C81.5564 9.01849 81.9098 9.15706 82.2008 9.4342C82.4918 9.71135 82.6373 10.0439 82.6373 10.4319C82.6373 10.8615 82.4918 11.2218 82.2008 11.5128C81.9236 11.8038 81.5703 11.9493 81.1407 11.9493Z" fill="white"/>
<path d="M84.2904 13.7368H86.4937L86.5144 15.4828C86.7777 14.9008 87.1934 14.4227 87.7616 14.0486C88.3297 13.6745 88.9949 13.4874 89.757 13.4874C90.7408 13.4874 91.4961 13.6952 92.0226 14.111C92.5492 14.5128 92.9025 15.081 93.0827 15.8154C93.2628 16.5498 93.3529 17.5059 93.3529 18.6838V23.2774H91.1081V18.7461C91.1081 17.5406 90.9903 16.6745 90.7547 16.1479C90.5191 15.6075 90.0341 15.3373 89.2997 15.3373C88.884 15.3373 88.4614 15.469 88.0318 15.7322C87.6022 15.9817 87.2419 16.3489 86.9509 16.8339C86.6738 17.3189 86.5352 17.887 86.5352 18.5383V23.2774H84.2904V13.7368Z" fill="white"/>
<path d="M25.2057 13.7368V14.7787C26.1907 15.6718 26.8093 16.9616 26.8093 18.396C26.8093 19.8202 26.1994 21.102 25.2265 21.9943V23.2774H27.3466V13.7368H25.2057Z" fill="white"/>
<path fill-rule="evenodd" clip-rule="evenodd" d="M25.2265 21.9943C26.1994 21.102 26.8093 19.8202 26.8093 18.396C26.8093 16.9616 26.1907 15.6718 25.2057 14.7787C25.1493 14.7275 25.0917 14.6777 25.0329 14.6292C24.1891 13.9328 23.1073 13.5145 21.9279 13.5145C19.2319 13.5145 17.0464 15.7 17.0464 18.396C17.0464 21.0919 19.2319 23.2774 21.9279 23.2774C23.1996 23.2774 24.3577 22.7911 25.2265 21.9943ZM21.9279 21.0729C23.4063 21.0729 24.6048 19.8744 24.6048 18.396C24.6048 16.9175 23.4063 15.719 21.9279 15.719C20.4494 15.719 19.2509 16.9175 19.2509 18.396C19.2509 19.8744 20.4494 21.0729 21.9279 21.0729Z" fill="white"/>
<path d="M100.031 23.5924C97.1612 23.5924 94.8347 21.2658 94.8347 18.396C94.8347 15.5261 97.1612 13.1996 100.031 13.1996C102.901 13.1996 105.228 15.5261 105.228 18.396C105.228 18.7742 105.187 19.143 105.11 19.4982H102.813C102.949 19.1571 103.023 18.7852 103.023 18.396C103.023 18.1235 102.987 17.8595 102.918 17.6086C102.573 16.3382 101.411 15.4041 100.031 15.4041C98.6512 15.4041 97.4895 16.3382 97.1439 17.6086C97.0757 17.8595 97.0392 18.1235 97.0392 18.396C97.0392 18.7852 97.1136 19.1571 97.2488 19.4982C97.6877 20.6051 98.768 21.3878 100.031 21.3878C100.892 21.3878 101.667 21.0246 102.213 20.443H104.809C104.014 22.2951 102.174 23.5924 100.031 23.5924Z" fill="white"/>
<path d="M102.813 19.4982C102.949 19.1571 103.023 18.7852 103.023 18.396C103.023 18.1235 102.987 17.8595 102.918 17.6086H97.1439C97.0757 17.8595 97.0392 18.1235 97.0392 18.396C97.0392 18.7852 97.1136 19.1571 97.2488 19.4982H102.813Z" fill="white"/>
</g>
<defs>
<clipPath id="clip0_85_122">
<rect width="88.1812" height="22.8115" fill="white" transform="translate(17.0464 8)"/>
</clipPath>
</defs>
</svg>
